<!DOCTYPE svg PUBLIC "-//W3C//DTD SVG 1.1//EN" "http://www.w3.org/Graphics/SVG/1.1/DTD/svg11.dtd">
<!-- Uploaded to: SVG Repo, www.svgrepo.com, Transformed by: SVG Repo Mixer Tools -->
<svg version="1.1" id="Layer_1" xmlns="http://www.w3.org/2000/svg" xmlns:xlink="http://www.w3.org/1999/xlink" viewBox="0 0 512 512" xml:space="preserve" width="800px" height="800px" fill="#000000">
<g id="SVGRepo_bgCarrier" stroke-width="0"/>
<g id="SVGRepo_tracerCarrier" stroke-linecap="round" stroke-linejoin="round"/>
<g id="SVGRepo_iconCarrier"> <path style="fill:#a2255b;" d="M483.632,387.204H28.368c-15.6,0-28.368-12.76-28.368-28.368V69.98 c0-15.6,12.768-28.368,28.368-28.368h455.264c15.6,0,28.368,12.768,28.368,28.368v288.864 C512,374.444,499.232,387.204,483.632,387.204z"/> <rect x="25.6" y="67.204" style="fill:#ee68af;" width="460.8" height="294.4"/> <rect x="166.536" y="387.196" style="fill:#da2f8a;" width="152.8" height="54.744"/> <polygon style="fill:#a2255b;" points="345.44,455.188 140.448,455.188 166.552,441.948 319.336,441.948 "/> <polygon style="fill:#da2f8a;" points="166.536,387.204 284.848,387.204 166.536,406.628 "/> <rect x="140.448" y="455.188" style="fill:#da2f8a;" width="204.992" height="15.2"/> <g style="opacity:0.15;"> <polygon style="fill:#a2255b;" points="25.6,241.22 25.6,67.204 232.352,67.204 "/> </g> </g>
</svg>