<!DOCTYPE svg PUBLIC "-//W3C//DTD SVG 1.1//EN" "http://www.w3.org/Graphics/SVG/1.1/DTD/svg11.dtd">
<!-- Uploaded to: SVG Repo, www.svgrepo.com, Transformed by: SVG Repo Mixer Tools -->
<svg fill="#c3b304" width="800px" height="800px" viewBox="-5 -2 24 24" xmlns="http://www.w3.org/2000/svg" preserveAspectRatio="xMinYMin" class="jam jam-padlock-f" stroke="#c3b304">
<g id="SVGRepo_bgCarrier" stroke-width="0"/>
<g id="SVGRepo_tracerCarrier" stroke-linecap="round" stroke-linejoin="round"/>
<g id="SVGRepo_iconCarrier">
<path d="M12 10a2 2 0 0 1 2 2v6a2 2 0 0 1-2 2H2a2 2 0 0 1-2-2v-6a2 2 0 0 1 2-2V5a5 5 0 1 1 10 0v5zm-5 7a2 2 0 1 0 0-4 2 2 0 0 0 0 4zm3-7V5a3 3 0 1 0-6 0v5h6z"/>
</g>
</svg>